<?xml version="1.0" standalone="no"?><!DOCTYPE svg PUBLIC "-//W3C//DTD SVG 1.1//EN" "http://www.w3.org/Graphics/SVG/1.1/DTD/svg11.dtd"><svg t="1563789689167" class="icon" viewBox="0 0 1024 1024" version="1.1" xmlns="http://www.w3.org/2000/svg" p-id="1128" width="280" height="280" xmlns:xlink="http://www.w3.org/1999/xlink"><defs><style type="text/css"></style></defs><path d="M415.262409 955.162791S2.704269 862.046512 187.076362 400c0 0 41.860465 51.348837 36.093024 76 0 0 32.837209-116.651163 103.627907-186.325581C387.634502 229.860465 449.401944 61.581395 392.471711 0.744186c0 0 282.232558 60.837209 313.674419 365.023256 0 0 36.093023-96.930233 110.232558-106.511628 0 0-22.790698 53.302326 0 133.116279 0 0 233.767442 410.604651-169.116279 549.395349 0 0 120.744186-140.651163-135.441861-382.139535 0 0-60.372093 129.302326-96.465116 174.883721-0.093023 0.093023-100.930233 116-0.093023 220.651163z" p-id="1129"></path></svg>