<?xml version="1.0" standalone="no"?><!DOCTYPE svg PUBLIC "-//W3C//DTD SVG 1.1//EN" "http://www.w3.org/Graphics/SVG/1.1/DTD/svg11.dtd"><svg t="1562432254384" class="icon" viewBox="0 0 1024 1024" version="1.1" xmlns="http://www.w3.org/2000/svg" p-id="12856" xmlns:xlink="http://www.w3.org/1999/xlink" width="290" height="290"><defs><style type="text/css"></style></defs><path d="M263.1104 120v49.408c0 27.4752 22.208 49.4144 49.536 49.4144h398.7136c26.88 0 49.5296-22.1376 49.5296-49.408V120h99.8016c54.8544 0 99.3088 43.9744 99.3088 98.8224V861.184c0 54.5984-44.4544 98.8224-99.3088 98.8224H163.3088a99.6288 99.6288 0 0 1-70.3232-28.9472A98.1568 98.1568 0 0 1 64 861.184V218.816c0-54.5984 44.4544-98.8224 99.3088-98.8224H263.104z m186.368 231.3984H288.7488c-10.6048 0-20.416 1.6256-29.4208 4.9408a78.2976 78.2976 0 0 0-23.4944 13.3376c-7.0656 5.8816-12.5952 12.6016-16.5248 20.16a51.9936 51.9936 0 0 0-5.9776 24.608v51.4368h125.696v-61.9648h346.5984v53.664h125.0432v-43.136c0-8.896-1.9904-17.0496-5.9776-24.608a71.3792 71.3792 0 0 0-15.872-20.2112 78.304 78.304 0 0 0-23.4496-13.2416 84.7872 84.7872 0 0 0-29.472-4.992H575.2192v-33.7472h-125.696v33.7536h-0.0448z m7.4176 508.64v50.5472h110.208v-50.5472h127.6288c9.312 0 17.92-1.7792 25.8368-5.3376 24.6272-11.1232 40.4032-35.5456 40.32-62.4V593.664c0-9.4912-1.7408-18.2848-5.2288-26.4384a76.5184 76.5184 0 0 0-13.9392-21.696 74.3488 74.3488 0 0 0-21.152-14.2272 62.2144 62.2144 0 0 0-25.8368-5.3824H567.104v-60.032H456.896v60.032H329.2672c-9.312 0-17.92 1.7792-25.8368 5.3824a66.7136 66.7136 0 0 0-20.608 14.2336 70.6176 70.6176 0 0 0-14.4832 21.7408c-3.488 8.1024-5.2288 16.896-5.2288 26.432v198.592c0 9.088 1.7408 17.7856 5.2288 26.1376 3.4816 8.3008 8.3136 15.4624 14.4832 21.3952a62.432 62.432 0 0 0 46.4448 20.256H456.896v-0.0512z m-94.2272-196.512v-98.816h99.552v98.816H362.6688z m199.104-98.816h99.5584v98.816H561.7792v-98.816z m-199.104 222.3488v-74.112h99.552v74.112H362.6688z m298.6624 0H561.7792v-74.112h99.552v74.112z m101.7344-620.7936c-0.0832-24.6016-16.4928-38.144-44.6848-38.2656H320c-27.7184 0-57.472 13.5808-57.472 38.2656V288c-13.6128 0.0128-65.0752-4.704-74.7072-13.1072C178.1888 266.4896 172.7808 255.0848 172.8 243.2V108.8c0-24.7296 23.4112-44.8 51.4368-44.8h570.7264c13.632-0.0384 26.7264 4.672 36.3776 13.0752 9.6576 8.4096 15.072 19.8272 15.0592 31.7248v134.4c0 24.7296-55.3024 44.7552-83.328 44.8V166.2656z" fill="#BFCBD9" p-id="12857"></path></svg>