<?xml version="1.0" standalone="no"?><!DOCTYPE svg PUBLIC "-//W3C//DTD SVG 1.1//EN" "http://www.w3.org/Graphics/SVG/1.1/DTD/svg11.dtd"><svg t="1562083689559" class="icon" viewBox="0 0 1102 1024" version="1.1" xmlns="http://www.w3.org/2000/svg" p-id="2026" width="290.56640625" height="270" xmlns:xlink="http://www.w3.org/1999/xlink"><defs><style type="text/css"></style></defs><path d="M964.332308 0.393846H138.791385C62.779077 0.393846 1.181538 63.409231 1.181538 140.996923v563.2c0 77.587692 61.597538 140.603077 137.609847 140.603077h270.178461l142.572308 178.018462 142.257231-178.018462h270.532923c76.012308 0 137.649231-63.015385 137.64923-140.603077V140.996923c0-77.627077-61.636923-140.603077-137.64923-140.603077zM239.458462 529.565538c-58.131692 0-105.275077-48.246154-105.275077-107.716923 0-59.470769 47.143385-107.716923 105.275077-107.716923S344.733538 362.338462 344.733538 421.809231c0 59.470769-47.143385 107.716923-105.275076 107.716923z m310.272 0c-58.131692 0-105.275077-48.246154-105.275077-107.716923 0-59.470769 47.143385-107.716923 105.275077-107.716923s105.275077 48.206769 105.275076 107.716923c0 59.470769-47.143385 107.716923-105.275076 107.716923z m310.272 0c-58.131692 0-105.275077-48.246154-105.275077-107.716923 0-59.470769 47.143385-107.716923 105.275077-107.716923 58.171077 0 105.314462 48.206769 105.314461 107.716923 0 59.470769-47.143385 107.716923-105.314461 107.716923z" p-id="2027"></path></svg>