<?xml version="1.0" standalone="no"?><!DOCTYPE svg PUBLIC "-//W3C//DTD SVG 1.1//EN" "http://www.w3.org/Graphics/SVG/1.1/DTD/svg11.dtd"><svg t="1562432283819" class="icon" viewBox="0 0 1024 1024" version="1.1" xmlns="http://www.w3.org/2000/svg" p-id="13459" width="320" height="320" xmlns:xlink="http://www.w3.org/1999/xlink"><defs><style type="text/css"></style></defs><path d="M511.36 1016.42752c-262.66112 0-393.24672-282.51648-398.67904-294.54336l-18.12992-40.04864c-0.7168-1.5872-0.57856-3.42528 0.36352-4.88448s2.56-2.34496 4.3008-2.34496l40.26368 0c9.03168 0 217.71264 1.35168 341.67808 117.00224l0-55.21408c-54.40512-11.392-98.3808-50.14528-116.33152-102.49216-9.9328 1.9456-20.05504 2.92864-30.16192 2.92864-55.89504 0-108.10368-30.30528-136.25344-79.08352-34.0224-58.91072-27.02336-131.57376 17.11616-182.31296-44.13952-50.76992-51.13856-123.43808-17.11104-182.32832 28.16512-48.768 80.37888-79.06304 136.25856-79.06304 10.09664 0 20.21888 0.98304 30.15168 2.92864 21.82144-63.63136 81.15712-106.0608 149.10464-106.0608 67.9424 0 127.27808 42.42432 149.10464 106.05056 9.92256-1.94048 20.03968-2.92864 30.14144-2.92864 55.90528 0 108.11392 30.30016 136.2432 79.08352 34.02752 58.88512 27.02848 131.55328-17.11616 182.3232 44.14464 50.74432 51.13856 123.40736 17.11616 182.31296-28.14464 48.77824-80.3584 79.0784-136.2688 79.0784-10.08128 0-20.18816-0.98304-30.11584-2.92352-17.97632 52.352-61.95712 91.10016-116.34176 102.49216l0 50.96448c124.31872-110.62784 327.64416-112.7168 336.4352-112.74752 0 0 45.48608-0.1792 45.4912-0.1792 1.8176 0 3.51232 0.96768 4.42368 2.54464 0.9216 1.58208 0.92672 3.5328 0.01536 5.12l-24.47872 42.69056C901.73952 736.6912 738.46272 1016.42752 511.36 1016.42752zM199.64928 744.7808c49.8688 80.96256 152.70912 206.1056 311.71072 206.1056 132.75136 0 245.25824-124.14976 304.39424-204.93824-73.51296 10.32192-193.77152 39.66464-256.03584 122.79808l-44.27776 59.11552c-0.96768 1.29024-2.4832 2.048-4.10112 2.048l0 0c-1.6128 0-3.13344-0.75776-4.10112-2.048l-44.25216-59.13088C398.75072 782.86848 274.5856 754.28352 199.64928 744.7808zM405.91872 557.568c2.19648 0 4.20864 1.41824 4.8896 3.60448l15.16032 48.86016c11.95008 38.50752 47.30368 64.384 87.9616 64.384 40.64256 0 76.00128-25.88672 87.97696-64.4096l15.17056-48.82432c0.68096-2.18112 2.688-3.59936 4.88448-3.59936 0.37376 0 0.75264 0.04096 1.13664 0.12288l49.85856 11.30496c6.65088 1.50528 13.44512 2.26816 20.19328 2.26816 33.05472 0 62.78144-17.31072 79.5136-46.30016 20.38272-35.30752 15.70304-78.94528-11.648-108.5952l-34.56-37.48352c-1.80736-1.96096-1.80736-4.98176 0-6.9376l34.56-37.48352c27.35104-29.68064 32.04096-73.32352 11.65824-108.5952-16.73728-29.00992-46.45376-46.33088-79.50848-46.33088-6.76864 0-13.56288 0.76288-20.19328 2.26816l-49.8688 11.32032c-0.37888 0.08704-0.76288 0.128-1.14176 0.128-2.19648 0-4.20352-1.41824-4.88448-3.59936l-15.17056-48.83456c-11.97568-38.51776-47.32928-64.40448-87.97696-64.40448-40.64768 0-76.00128 25.88672-87.97184 64.41472l-15.17056 48.82432c-0.67584 2.18112-2.688 3.59936-4.8896 3.59936-0.37376 0-0.75264-0.04096-1.13664-0.128l-49.85856-11.30496c-6.63552-1.50528-13.44512-2.26816-20.23424-2.26816-33.04448 0-62.76608 17.31072-79.50848 46.30528-20.38272 35.28704-15.69792 78.93504 11.65824 108.60544l34.55488 37.48864c1.80736 1.96096 1.80736 4.98176 0 6.94272l-34.56512 37.47328c-27.34592 29.65504-32.0256 73.28768-11.64288 108.58496 16.7424 29.0048 46.45888 46.32064 79.50336 46.32064 6.79424 0 13.59872-0.76288 20.23424-2.27328l49.88416-11.32032C405.16608 557.60896 405.54496 557.568 405.91872 557.568zM513.92 518.77888c-79.04256 0-143.35488-64.3072-143.35488-143.35488s64.3072-143.35488 143.35488-143.35488 143.35488 64.31232 143.35488 143.35488S592.96256 518.77888 513.92 518.77888zM513.92 297.60512c-42.91072 0-77.81888 34.90816-77.81888 77.81888s34.90816 77.81888 77.81888 77.81888 77.81888-34.90816 77.81888-77.81888S556.83072 297.60512 513.92 297.60512z" p-id="13460"></path></svg>