<?xml version="1.0" standalone="no"?><!DOCTYPE svg PUBLIC "-//W3C//DTD SVG 1.1//EN" "http://www.w3.org/Graphics/SVG/1.1/DTD/svg11.dtd"><svg t="1561971128431" class="icon" viewBox="0 0 1024 1024" version="1.1" xmlns="http://www.w3.org/2000/svg" p-id="2823" xmlns:xlink="http://www.w3.org/1999/xlink" width="200" height="200"><defs><style type="text/css"></style></defs><path d="M1005.462069 88.876138l-0.918069 264.368552c0 16.454621-6.744276 31.426207-19.773793 41.666207-10.593103 8.333241-23.375448 12.464552-37.075862 12.464551h-14.30069c-15.677793 0-30.013793-6.073379-40.677517-17.549241a56.955586 56.955586 0 0 1-15.254069-39.441655l0.494345-111.015724-147.38538 146.220138a401.478621 401.478621 0 0 1 50.14069 92.054068c17.125517 44.137931 25.705931 90.924138 25.705931 140.076138 0 54.377931-10.381241 105.648552-31.179034 153.494069a400.489931 400.489931 0 0 1-84.497655 124.751449 400.489931 400.489931 0 0 1-124.786759 84.532965 381.316414 381.316414 0 0 1-153.458759 31.143724c-54.377931 0-105.754483-10.345931-153.847172-31.108413a393.710345 393.710345 0 0 1-124.998621-84.674207 404.374069 404.374069 0 0 1-83.932689-124.645518 381.316414 381.316414 0 0 1-31.179035-153.494069c0-54.377931 10.381241-105.754483 31.143724-153.847172a397.453241 397.453241 0 0 1 84.109242-124.857379A397.453241 397.453241 0 0 1 258.648276 254.94069a384.494345 384.494345 0 0 1 153.847172-31.143724c47.880828 0 93.537103 8.22731 136.756966 24.717241 32.344276 12.358621 62.287448 28.142345 89.688276 47.315862l147.915034-146.184828-108.084965-0.459034c-13.27669 0-25.705931-4.413793-36.440276-12.464552-13.312-9.992828-20.691862-24.717241-22.174897-44.385103V78.035862c0-15.32469 5.790897-29.378207 16.595862-40.218483 10.628414-10.628414 24.328828-16.595862 39.441655-16.595862l266.946207 0.882759h10.734345c6.744276 0 13.34731 1.05931 19.703173 3.177931 7.768276 2.577655 14.724414 6.744276 20.51531 12.535172 4.555034 4.555034 8.545103 9.675034 10.451862 15.677793 0.918069 2.824828 0.918069 6.673655 0.918069 17.160828v18.255448z m-327.044414 528.843034c0-37.075862-6.956138-71.397517-20.833103-103.388689-14.124138-32.485517-33.191724-60.804414-57.27338-85.168552a265.639724 265.639724 0 0 0-84.815448-57.37931 257.200552 257.200552 0 0 0-103.000276-20.868414c-37.075862 0-71.64469 6.956138-103.953655 20.833103a265.639724 265.639724 0 0 0-84.780138 57.414621 276.303448 276.303448 0 0 0-57.273379 85.168552 256.282483 256.282483 0 0 0-20.833104 103.388689c0 37.075862 6.956138 71.432828 20.833104 103.38869 14.124138 32.485517 33.191724 60.804414 57.273379 85.168552a259.636966 259.636966 0 0 0 84.568276 56.849655 264.333241 264.333241 0 0 0 104.165517 20.51531 262.073379 262.073379 0 0 0 103.247449-20.48 259.636966 259.636966 0 0 0 84.568275-56.884965 276.303448 276.303448 0 0 0 57.27338-85.168552c13.876966-31.955862 20.833103-66.312828 20.833103-103.38869z" fill="#d6204b" p-id="2824"></path></svg>