<?xml version="1.0" standalone="no"?><!DOCTYPE svg PUBLIC "-//W3C//DTD SVG 1.1//EN" "http://www.w3.org/Graphics/SVG/1.1/DTD/svg11.dtd"><svg t="1562431861757" class="icon" viewBox="0 0 1024 1024" version="1.1" xmlns="http://www.w3.org/2000/svg" p-id="11005" xmlns:xlink="http://www.w3.org/1999/xlink" width="270" height="270"><defs><style type="text/css"></style></defs><path d="M87.04 0v1024h5.12l419.84-168.96 424.96 168.96h5.12V0H87.04z m312.32 645.12H332.8V486.4c-15.36 15.36-35.84 30.72-51.2 51.2-5.12-25.6-10.24-51.2-20.48-76.8 35.84-30.72 71.68-66.56 97.28-102.4H266.24V296.96h122.88c0-5.12 5.12-10.24 5.12-15.36h-10.24v-30.72H266.24V194.56h117.76v-35.84h66.56v35.84h122.88v-35.84h66.56v35.84h112.64v56.32h-112.64v30.72h-66.56v-30.72H450.56v25.6l25.6 5.12c0 5.12-5.12 10.24-5.12 15.36h281.6v56.32H440.32c-15.36 15.36-25.6 35.84-40.96 56.32v235.52z m353.28-112.64h-117.76v40.96c0 10.24 0 20.48-5.12 35.84-5.12 10.24-10.24 15.36-20.48 20.48-10.24 5.12-25.6 10.24-40.96 10.24H486.4c-5.12-20.48-5.12-35.84-15.36-61.44h61.44c10.24 0 20.48 0 30.72-5.12 5.12-5.12 5.12-10.24 5.12-15.36v-30.72H419.84v-51.2H563.2v-20.48l66.56-25.6H450.56v-51.2h276.48v61.44l-92.16 40.96v5.12h117.76v46.08z" p-id="11006" fill="#BFCBD9"></path></svg>