<?xml version="1.0" standalone="no"?><!DOCTYPE svg PUBLIC "-//W3C//DTD SVG 1.1//EN" "http://www.w3.org/Graphics/SVG/1.1/DTD/svg11.dtd"><svg t="1561971082732" class="icon" viewBox="0 0 1024 1024" version="1.1" xmlns="http://www.w3.org/2000/svg" p-id="1558" xmlns:xlink="http://www.w3.org/1999/xlink" width="200" height="200"><defs><style type="text/css"></style></defs><path d="M233.586927 550.952457a400.453853 400.453853 0 0 1-25.59979-142.95654c0-56.319537 10.751912-109.530529 32.255735-159.340405a411.644619 411.644619 0 0 1 87.112428-129.278938A411.644619 411.644619 0 0 1 456.670809 32.264146 398.223015 398.223015 0 0 1 616.011214 0.008411c56.319537 0 109.420815 10.751912 158.938123 32.292307a418.81256 418.81256 0 0 1 129.096083 86.929571 407.768079 407.768079 0 0 1 87.697565 129.461794c21.503823 49.773305 32.255735 103.020868 32.255735 159.303834 0 56.319537-10.751912 109.420815-32.292306 158.974694a414.789736 414.789736 0 0 1-87.51471 129.205796 414.789736 414.789736 0 0 1-129.242367 87.551281 394.931613 394.931613 0 0 1-158.938123 32.292306c-50.943582 0-99.254042-8.886784-144.711954-26.696923a417.422857 417.422857 0 0 1-93.804944-50.980153l-70.216566 70.801704 101.521452 102.289446c12.434184 12.434184 19.053558 28.598622 19.053558 46.262477 0 17.18843-6.180521 32.987158-17.736997 45.823623l-2.706264 2.742835A67.546874 67.546874 0 0 1 361.585876 1024c-17.700426 0-33.828294-6.582803-46.408762-19.163271L213.948231 902.839852l-100.424318 101.155741a64.877181 64.877181 0 0 1-46.774473 19.090129c-17.919853 0-34.194005-6.546232-45.348199-17.773568A63.487478 63.487478 0 0 1 0.007131 957.257691a62.170918 62.170918 0 0 1 19.894694-46.664759l100.8266-101.558023L22.31552 709.122586a63.487478 63.487478 0 0 1-21.430682-48.091033c0-18.066137 6.985085-34.37686 20.004408-46.774473a62.829198 62.829198 0 0 1 46.299048-19.967836c17.992995 0 34.303718 7.094799 47.32304 20.114121l99.363755 100.095177 69.37543-69.887426a413.61946 413.61946 0 0 1-49.700163-93.622088z m382.424287 132.497198a266.384098 266.384098 0 0 0 106.714552-21.650108 279.001137 279.001137 0 0 0 87.953563-59.135515 279.001137 279.001137 0 0 0 59.135515-87.953563 266.384098 266.384098 0 0 0 21.613536-106.714552c0-38.399685-7.204512-74.166248-21.613536-107.62883a279.001137 279.001137 0 0 0-59.135515-87.953563 279.001137 279.001137 0 0 0-87.953563-59.135514 266.384098 266.384098 0 0 0-106.714552-21.613537c-38.399685 0-74.202819 7.204512-107.62883 21.576965a279.001137 279.001137 0 0 0-87.990134 59.172086 279.001137 279.001137 0 0 0-59.135515 87.953563 268.72465 268.72465 0 0 0-21.576965 107.62883c0 37.777975 7.167941 73.25197 21.576965 106.714552a279.001137 279.001137 0 0 0 59.135515 87.953563c24.868367 24.868367 54.12527 44.543634 87.990134 59.135515a268.72465 268.72465 0 0 0 107.62883 21.613536z" fill="#7dc5eb" p-id="1559"></path></svg>