<?xml version="1.0" standalone="no"?><!DOCTYPE svg PUBLIC "-//W3C//DTD SVG 1.1//EN" "http://www.w3.org/Graphics/SVG/1.1/DTD/svg11.dtd"><svg t="1561973278024" class="icon" viewBox="0 0 1024 1024" version="1.1" xmlns="http://www.w3.org/2000/svg" p-id="4588" xmlns:xlink="http://www.w3.org/1999/xlink" width="200" height="200"><defs><style type="text/css"></style></defs><path d="M556.032 367.104c0-134.656-100.352-243.712-223.744-243.712S109.056 232.448 109.056 367.104c0 97.792 53.248 181.76 129.536 220.672v53.248h188.416v-53.248c76.288-38.912 129.024-122.88 129.024-220.672z" fill="#606266" p-id="4589"></path><path d="M650.752 937.472c1.536-12.288 2.56-25.088 2.56-37.888 0-168.448-143.36-304.64-320.512-304.64S11.776 731.136 11.776 899.584c0 12.8 1.024 25.088 2.56 37.888h636.416zM913.408 86.528H520.704v43.52h392.704c32.256 0 54.784 17.408 54.784 33.28v696.32c0 15.872-22.528 33.28-54.784 33.28H691.712v43.52h221.696c55.296 0 98.304-33.792 98.304-77.312V163.84c0.512-43.008-43.008-77.312-98.304-77.312z" fill="#606266" p-id="4590"></path><path d="M909.312 302.592c0 8.704-6.656 15.872-14.336 15.872H594.432c-8.192 0-14.336-7.168-14.336-15.872v-45.568c0-8.704 6.656-15.872 14.336-15.872h300.544c8.192 0 14.336 7.168 14.336 15.872v45.568z m0 158.208c0 8.704-6.656 15.872-14.336 15.872H594.432c-8.192 0-14.336-7.168-14.336-15.872v-45.568c0-8.704 6.656-15.872 14.336-15.872h300.544c8.192 0 14.336 7.168 14.336 15.872V460.8z m0 158.208c0 8.704-5.12 15.872-11.264 15.872H665.6c-6.144 0-11.264-7.168-11.264-15.872V573.44c0-8.704 5.12-15.872 11.264-15.872h232.448c6.144 0 11.264 7.168 11.264 15.872v45.568z" fill="#606266" p-id="4591"></path></svg>