<?xml version="1.0" standalone="no"?><!DOCTYPE svg PUBLIC "-//W3C//DTD SVG 1.1//EN" "http://www.w3.org/Graphics/SVG/1.1/DTD/svg11.dtd"><svg t="1562083884373" class="icon" viewBox="0 0 1024 1024" version="1.1" xmlns="http://www.w3.org/2000/svg" p-id="5526" xmlns:xlink="http://www.w3.org/1999/xlink" width="270" height="270"><defs><style type="text/css"></style></defs><path d="M512 0C229.2 0 0 229.2 0 512s229.2 512 512 512 512-229.2 512-512S794.8 0 512 0z m0 256c28.3 0 51.2 32.8 51.2 73.1l-25.6 219.4c-4.8 25-14 36.6-25.6 36.6-11.6 0-21.6-10.5-25.6-36.6l-25.6-219.4c0-40.4 22.9-73.1 51.2-73.1z m0 512c-28.3 0-51.2-33-51.2-73.6s22.9-73.6 51.2-73.6 51.2 33 51.2 73.6S540.3 768 512 768z" p-id="5527"></path></svg>