<?xml version="1.0" standalone="no"?><!DOCTYPE svg PUBLIC "-//W3C//DTD SVG 1.1//EN" "http://www.w3.org/Graphics/SVG/1.1/DTD/svg11.dtd"><svg t="1562432458944" class="icon" viewBox="0 0 1024 1024" version="1.1" xmlns="http://www.w3.org/2000/svg" p-id="14338" xmlns:xlink="http://www.w3.org/1999/xlink" width="320" height="320"><defs><style type="text/css"></style></defs><path d="M741.58726554 852.38310383c-77.45909309 62.0218174-170.62111078 94.72764677-269.41826393 94.72764677-238.90120673 0-433.30773428-195.1653203-433.30773291-435.10792402 0-239.9454317 194.40511356-435.18422791 433.30773291-435.1842293 228.30212112 0 418.22088701 179.18261662 432.31861867 407.91853718l0.46912272 6.89131397h56.61417824l-0.4719493-7.75891006c-3.18636614-56.51526724-15.82585671-111.44512208-37.5991288-163.32143386-24.63181695-58.57828071-59.92630446-111.18795154-104.95228011-156.36229576-45.08814938-45.17999601-97.46325953-80.66524253-155.73915407-105.3451017-60.39825376-25.67038876-124.54667099-38.67443926-190.68744958-38.67443927-66.09556295 0-130.25952292 13.0026379-190.65495149 38.67443927-58.24622026 24.74768468-110.64958931 60.1651057-155.72360992 105.3451017-44.96521727 45.24216975-80.27242234 97.85184057-104.87315103 156.43012129-25.63788929 60.69498817-38.55857152 125.04546798-38.55857152 191.38689654 0 66.33860198 12.91926964 130.75125415 38.55857152 191.44624371 24.60214269 58.57828071 59.90793514 111.18795154 104.87315103 156.29870941 45.02597702 45.24216975 97.47738967 80.66806913 155.80132641 105.40868804 60.37988444 25.67604053 124.54384441 38.67443926 190.62386462 38.6744379 66.09273637 0 130.2425662-12.99839873 190.70299372-38.6744379 56.6268958-24.01573824 107.79245703-58.30698 152.03279362-101.83373947l12.71579308-12.53634038h-84.02258441l-2.00931947 1.59671594z m-112.69140686-313.58371061c15.36945154 0 27.94676837-12.7327498 27.94676837-28.45828154 0-15.71705475-12.51373187-28.52610844-27.94676837-28.52610842h-123.35125363v-16.38400086c0.59488279-1.19259079 1.0668321-2.38659556 1.39747858-3.64983847l119.84978373-128.02977292c10.78560406-11.07810066 10.78560406-29.06305667 0-40.07474442-5.30731419-5.44155123-12.32438684-8.42444358-19.79645207-8.42444358-7.48902196 0-14.56967958 2.98430495-19.87699514 8.42444358l-109.45699852 118.1569806-109.44145438-118.01991696-0.06358634-0.13565103c-5.30448759-5.44155123-12.38514659-8.42444358-19.87416857-8.42444221-7.47347783 0-14.42837814 2.98430495-19.73569092 8.42444221-10.86473315 11.01027516-10.86473315 28.99523116-0.06358635 40.07474442l119.7890226 128.09759844c0.39140762 1.26324289 0.92553066 2.45724628 1.50628194 3.58201295v16.38400085h-123.3357095c-15.36945154 0-27.96089852 12.74122817-27.96089853 28.52610843 0 15.65629499 12.52927461 28.4582829 27.96089853 28.45828291h123.3357095v33.96765828h-123.3357095c-15.36945154 0-27.96089852 12.73840159-27.96089853 28.4554577 0 15.72694572 12.52927461 28.46534729 27.96089853 28.46534729h123.3357095v82.79184235c0 15.64922924 12.46568828 28.45121714 27.88318202 28.45121716 15.43303649 0 27.96089852-12.7327498 27.96089852-28.45121716v-82.85966787h123.27212454c15.36945154 0 27.94676837-12.73840159 27.94676837-28.45545632 0-15.72694572-12.57731684-28.46534729-27.94676837-28.4653473h-123.35125362v-33.89983413h123.35266761z m410.93675281 122.39463747c-0.73618562-1.72247466-1.58682499-3.04647731-2.32300922-3.97483318-0.20488778-0.26423494-0.33064786-0.46912411-0.45640656-0.66553488a1.63769379 1.63769379 0 0 1-0.26423494-0.53412166c-0.4719493-0.86335692-1.13041844-2.04888333-2.24529412-3.31212623l-104.08892322-110.25676909a25.69440987 25.69440987 0 0 0-18.82287918-8.16303384c-6.87859643 0-13.2979597 2.66072285-18.19691093 7.5045647-10.32919751 10.27691611-10.59625902 27.06080294-0.65846776 37.61043238l61.57388921 65.21242274H723.39318258c-14.42837814 0-26.15505562 11.93863101-26.15505561 26.59874462 0 14.66011361 11.72667746 26.53939745 26.15505561 26.53939745h230.95577822l-61.65160433 65.20535835c-9.86007478 10.54821682-9.59301327 27.33351626 0.65846776 37.4818471a25.80321183 25.80321183 0 0 0 18.21245367 7.49608773c7.1583741 0 13.83066877-2.91789203 18.80733507-8.1545555l104.04088237-110.25677046c1.17846065-1.19541739 1.70975849-2.38942214 2.16616367-3.18354095 0.06358634-0.13564965 0.14130283-0.26282234 0.20488916-0.39847198 0.20488778-0.19641081 0.32782128-0.46912411 0.51716629-0.73477166 0.73901083-0.98911561 1.74367056-2.32018403 2.46431207-4.17265656a26.75559018 26.75559018 0 0 0 1.91464627-9.9505088c0.06358634-3.25701825-0.61042555-6.63414341-1.85106131-9.89116028z" p-id="14339"></path></svg>